<?xml version="1.0" encoding="UTF-8"?>
<svg xmlns="http://www.w3.org/2000/svg" xmlns:xlink="http://www.w3.org/1999/xlink" viewBox="0 0 294.39 398.07">
  <defs>
    <style>
      .cls-1 {
        fill: #221c42;
        mix-blend-mode: multiply;
        opacity: .3;
      }

      .cls-2 {
        fill: #f4e4ae;
      }

      .cls-3 {
        fill: none;
      }

      .cls-4 {
        isolation: isolate;
      }

      .cls-5 {
        fill: #5abe82;
      }

      .cls-6 {
        fill: #e5175d;
      }

      .cls-7 {
        clip-path: url(#clippath);
      }
    </style>
    <clipPath id="clippath">
      <polygon class="cls-3" points="12.58 116.54 12.58 200.07 21.09 200.07 21.09 382.95 288.31 382.95 288.31 200.07 294.39 200.07 294.39 116.54 12.58 116.54"/>
    </clipPath>
  </defs>
  <g class="cls-4">
    <g id="Layer_1" data-name="Layer 1">
      <g>
        <polygon class="cls-2" points="12.58 116.54 12.58 200.07 21.09 200.07 21.09 382.95 288.31 382.95 288.31 200.07 294.39 200.07 294.39 116.54 12.58 116.54"/>
        <g class="cls-7">
          <g>
            <path class="cls-6" d="M1.49,166.64c.24,11.07.55,23.55.74,37.17.18,13.62.38,28.38.59,43.99.05,7.81.09,15.83.14,24.02.06,8.2.1,16.57.05,25.09-.06,17.04-.13,34.64-.2,52.52,0,16.05-.05,32.33.01,48.63h6.09c-.28-16.34-.66-32.65-1-48.73-.44-17.88-.87-35.47-1.28-52.5-.22-8.51-.36-16.88-.47-25.08-.12-8.19-.24-16.21-.36-24.02-.11-15.61-.22-30.37-.32-44-.09-13.62-.04-26.12-.03-37.19.01-11.07,0-20.72.11-28.67.11-15.9.28-24.99.28-24.99l-5.84.12s.35,9.08.79,24.97c.26,7.94.46,17.59.7,28.66Z"/>
            <path class="cls-6" d="M32.75,228.21c.13,4,.27,8.06.41,12.15.28,8.19.57,16.56.87,25.07.66,17.02,1.11,34.61,1.27,52.5.08,8.94.09,17.95.07,27-.09,9.05-.17,18.14-.26,27.22-.11,8.65-.23,17.29-.32,25.91h4.56c-.27-8.64-.57-17.31-.86-25.98-.27-9.08-.55-18.16-.82-27.2-.21-9.04-.39-18.06-.49-27-.22-17.88-.13-35.48.18-52.52.12-8.52.23-16.9.35-25.1.05-4.1.11-8.16.16-12.16,0-4.01.02-7.96.03-11.87-.02-15.61-.32-30.37-.54-43.99-.31-13.62-.58-26.11-.95-37.17-.32-11.06-.71-20.71-1.05-28.65-.17-4.18-.34-7.87-.5-11.07h-1.84c-.09,3.21-.19,6.92-.27,11.12-.17,7.95-.36,17.61-.45,28.68-.14,11.07-.16,23.56-.18,37.19.06,13.63.07,28.39.37,43.99.09,3.9.18,7.86.28,11.86Z"/>
            <path class="cls-6" d="M61.28,143.59c.19,13.62.38,28.38.59,43.99.05,7.81.09,15.83.14,24.02.06,8.2.09,16.57.05,25.09-.06,17.03-.13,34.64-.2,52.52,0,17.89-.07,36.06.03,54.22,0,18.17.25,36.33.67,54.21,0,.14,0,.28,0,.43h5.94c0-.18,0-.37,0-.55.05-17.89-.08-36.05-.46-54.21-.28-18.16-.72-36.33-1.09-54.2-.44-17.88-.87-35.47-1.28-52.5-.22-8.51-.36-16.88-.47-25.08-.12-8.2-.24-16.21-.36-24.02-.11-15.61-.22-30.37-.32-43.99-.09-13.63-.04-26.12-.03-37.19,0-3.83,0-7.48.01-10.97h-4.22c.08,3.5.16,7.18.24,11.05.24,11.07.55,23.55.74,37.18Z"/>
            <path class="cls-6" d="M91.8,167.98c.13,4,.27,8.05.41,12.15.28,8.19.57,16.56.87,25.07.66,17.02,1.11,34.61,1.26,52.5.08,8.94.1,17.95.07,27-.08,9.05-.17,18.14-.26,27.22-.23,18.17-.51,36.35-.48,54.23.02,10.77.03,21.41.04,31.91h6.03c-.2-10.54-.41-21.22-.62-32.02-.34-17.88-1-36.03-1.6-54.19-.27-9.08-.55-18.16-.82-27.2-.21-9.04-.39-18.06-.49-27-.22-17.88-.13-35.48.18-52.52.12-8.52.24-16.9.35-25.1.05-4.1.1-8.15.16-12.16.01-4.01.02-7.96.03-11.87-.02-15.61-.32-30.37-.54-43.99-.13-5.77-.25-11.32-.38-16.66h-4.83c-.02,5.37-.03,10.96-.04,16.77.06,13.63.07,28.39.37,44,.09,3.9.18,7.86.28,11.86Z"/>
            <path class="cls-6" d="M121.04,151.38c.06,8.2.09,16.57.05,25.09-.06,17.03-.13,34.64-.2,52.52,0,17.89-.07,36.06.03,54.22,0,18.17.25,36.33.67,54.21.21,8.94.43,17.81.64,26.57.26,8.76.52,17.41.78,25.92.08,2.74.15,5.44.23,8.15h3.92c.02-2.74.04-5.47.06-8.24.08-8.52.16-17.18.24-25.94.03-8.77.06-17.64.09-26.58.05-17.89-.08-36.05-.46-54.21-.28-18.16-.72-36.32-1.09-54.2-.44-17.88-.87-35.47-1.28-52.5-.22-8.51-.36-16.88-.46-25.08-.12-8.19-.24-16.21-.36-24.02-.08-11.12-.16-21.79-.23-31.94h-3.19c.13,10.17.28,20.86.43,32,.05,7.81.09,15.83.14,24.02Z"/>
            <path class="cls-6" d="M150.83,107.77c.13,4,.27,8.05.41,12.15.28,8.19.57,16.56.87,25.07.66,17.02,1.11,34.61,1.26,52.5.08,8.94.09,17.95.07,27-.09,9.05-.17,18.14-.26,27.22-.23,18.17-.51,36.35-.48,54.23.03,17.88.05,35.48.08,52.52-.01,8.52.08,16.89.16,25.09.03,4.91.09,9.74.16,14.52h6.56c-.03-4.82-.06-9.69-.13-14.66-.09-8.2-.17-16.57-.36-25.08-.33-17.03-.67-34.62-1.01-52.5-.34-17.88-1-36.04-1.6-54.19-.28-9.08-.55-18.16-.82-27.2-.21-9.05-.39-18.06-.49-27-.22-17.88-.13-35.48.18-52.52.12-8.52.24-16.9.35-25.1.05-4.1.11-8.16.16-12.16,0-4.01.02-7.96.03-11.87,0-.15,0-.29,0-.44h-5.42c0,.18,0,.36.01.55.09,3.9.18,7.86.28,11.86Z"/>
            <path class="cls-6" d="M180.65,277.19c.22,8.94.43,17.81.64,26.57.26,8.76.52,17.41.78,25.93.47,17.02.96,33.48,1.2,49.09.11,6.59.18,13.02.25,19.29h2.73c-.07-6.29-.13-12.74-.15-19.35-.08-15.61.07-32.08.19-49.12.08-8.52.16-17.18.24-25.94.03-8.77.06-17.64.09-26.58.05-17.89-.08-36.05-.46-54.21-.28-18.16-.72-36.33-1.09-54.2-.44-17.88-.87-35.47-1.28-52.5-.18-7.05-.3-13.97-.4-20.8h-3.25c.04,6.86.06,13.8.03,20.88-.06,17.03-.13,34.64-.2,52.52,0,17.89-.07,36.06.03,54.22,0,18.17.25,36.33.67,54.21Z"/>
            <path class="cls-6" d="M212.49,164.26c-.09,9.05-.17,18.14-.26,27.23-.23,18.17-.51,36.35-.48,54.23.03,17.89.05,35.49.07,52.52-.01,8.52.09,16.89.16,25.09.05,8.2.17,16.21.33,24.02.24,15.61.59,30.36.92,43.99.06,2.29.12,4.53.19,6.75h5.28c.02-2.26.03-4.54.05-6.86.04-13.63.1-28.39,0-44,0-7.81-.05-15.83-.17-24.02-.09-8.2-.17-16.57-.36-25.08-.33-17.03-.67-34.62-1.01-52.5-.34-17.88-1-36.04-1.6-54.19-.27-9.08-.55-18.16-.82-27.2-.21-9.04-.39-18.05-.49-26.99-.17-14.18-.15-28.17.02-41.85h-2.79c.45,13.69.77,27.69.89,41.89.08,8.94.09,17.95.07,27Z"/>
            <path class="cls-6" d="M239.68,216.98c.22,8.94.43,17.81.64,26.57.26,8.76.52,17.41.78,25.92.47,17.02.96,33.48,1.2,49.09.26,15.61.34,30.37.45,43.99.05,12.95.09,24.86.05,35.52h3.46c-.25-10.67-.47-22.6-.68-35.57-.17-13.62-.39-28.38-.46-43.99-.09-15.61.07-32.08.19-49.12.08-8.52.16-17.18.24-25.94.03-8.77.06-17.64.09-26.58.05-17.89-.08-36.05-.46-54.21-.28-18.16-.72-36.32-1.09-54.2-.11-4.38-.21-8.74-.32-13.08h-4.73c-.02,4.38-.03,8.77-.05,13.19,0,17.89-.07,36.06.03,54.22,0,18.17.25,36.33.66,54.21Z"/>
            <path class="cls-6" d="M271.03,263.1c.05,8.2.17,16.21.33,24.02.23,15.61.59,30.37.92,43.99.38,13.62.71,26.1,1.14,37.17.41,11.06.69,20.71,1.06,28.65.02.39.04.76.05,1.15h2.38c.01-.4.02-.79.03-1.2.21-7.95.29-17.6.47-28.68.2-11.08.28-23.57.37-37.2.04-13.63.1-28.39.01-44-.01-7.81-.05-15.83-.17-24.02-.09-8.19-.17-16.57-.36-25.08-.33-17.03-.67-34.62-1.01-52.5-.34-17.88-1-36.03-1.6-54.19-.28-9.08-.55-18.16-.82-27.2-.07-2.88-.12-5.76-.18-8.63h-2.12c0,2.89,0,5.78,0,8.68-.09,9.05-.17,18.14-.26,27.22-.23,18.17-.51,36.35-.48,54.23.03,17.89.05,35.49.08,52.52-.01,8.52.08,16.89.16,25.09Z"/>
          </g>
        </g>
        <path class="cls-5" d="M155.71,109.65S136.65,11.93,97.32,2.19c-39.33-9.73-62.04,14.6-62.04,40.14s12.98,70.96,115.16,72.18c-42.58-10.95-83.94-33.66-67.72-60.42,16.22-26.76,54.34,16.22,72.99,55.55Z"/>
        <path class="cls-5" d="M155.71,109.65S174.77,11.93,214.1,2.19c39.33-9.73,62.04,14.6,62.04,40.14s-12.98,70.96-115.16,72.18c42.58-10.95,83.94-33.66,67.71-60.42-16.22-26.76-54.33,16.22-72.99,55.55Z"/>
        <path class="cls-5" d="M164.85,108.16c0,5.66-4.59,10.24-10.24,10.24s-10.25-4.59-10.25-10.24,4.59-10.25,10.25-10.25,10.24,4.59,10.24,10.25Z"/>
        <rect class="cls-5" x="143.58" y="111.9" width="22.25" height="271.05"/>
        <rect class="cls-1" x="21.09" y="200.07" width="267.22" height="8.52"/>
        <g>
          <path class="cls-5" d="M153.48,110.32s-56.77,45.41-78.67,102.99c-4.87-4.87-17.84-12.98-17.84-12.98,0,0,32.65-72.99,91.34-92.45,3.14-2.43,5.16,2.43,5.16,2.43Z"/>
          <path class="cls-5" d="M160.98,107.21s29.2,23.92,46.23,62.04c17.03,38.12,14.6,100.16,14.6,100.16l-33.25-13.65s15.53-43.12,2.9-83.67c-12.63-40.55-35.74-60.42-35.74-60.42l5.27-4.46Z"/>
        </g>
      </g>
    </g>
  </g>
</svg>