<?xml version="1.0" encoding="UTF-8"?>
<svg xmlns="http://www.w3.org/2000/svg" xmlns:xlink="http://www.w3.org/1999/xlink" viewBox="0 0 457.32 475.42">
  <defs>
    <style>
      .cls-1 {
        fill: #221c42;
        mix-blend-mode: multiply;
        opacity: .3;
      }

      .cls-2 {
        fill: #f4e4ae;
      }

      .cls-3 {
        fill: none;
      }

      .cls-4 {
        isolation: isolate;
      }

      .cls-5 {
        fill: #e5175d;
      }

      .cls-6 {
        fill: #302c6a;
      }

      .cls-7 {
        clip-path: url(#clippath);
      }
    </style>
    <clipPath id="clippath">
      <polygon class="cls-3" points="21.78 95.15 21.78 239.25 37.05 239.25 37.05 463.47 421.4 463.47 421.4 239.25 429.04 239.25 429.04 95.15 21.78 95.15"/>
    </clipPath>
  </defs>
  <g class="cls-4">
    <g id="Layer_1" data-name="Layer 1">
      <g>
        <polygon class="cls-5" points="21.78 95.15 21.78 239.25 37.05 239.25 37.05 463.47 421.4 463.47 421.4 239.25 429.04 239.25 429.04 95.15 21.78 95.15"/>
        <rect class="cls-1" x="37.05" y="239.25" width="384.35" height="10.18"/>
        <g class="cls-7">
          <g>
            <path class="cls-6" d="M47.22,455.86c7.09,0,12.84,4.38,12.84,9.78s-5.75,9.78-12.84,9.78-12.84-4.38-12.84-9.78,5.75-9.78,12.84-9.78Z"/>
            <path class="cls-6" d="M113.43,459.12c4.73,0,8.56,2.92,8.56,6.52s-3.83,6.52-8.56,6.52-8.56-2.92-8.56-6.52,3.83-6.52,8.56-6.52Z"/>
            <path class="cls-6" d="M179.64,455.86c7.09,0,12.84,4.38,12.84,9.78s-5.75,9.78-12.84,9.78-12.84-4.38-12.84-9.78,5.75-9.78,12.84-9.78Z"/>
            <path class="cls-6" d="M245.85,457.08c6.21,0,11.24,3.83,11.24,8.56s-5.03,8.56-11.24,8.56-11.23-3.83-11.23-8.56,5.03-8.56,11.23-8.56Z"/>
            <path class="cls-6" d="M312.06,459.12c4.73,0,8.56,2.92,8.56,6.52s-3.83,6.52-8.56,6.52-8.56-2.92-8.56-6.52,3.83-6.52,8.56-6.52Z"/>
            <path class="cls-6" d="M378.27,455.86c7.09,0,12.84,4.38,12.84,9.78s-5.75,9.78-12.84,9.78-12.84-4.38-12.84-9.78,5.75-9.78,12.84-9.78Z"/>
            <path class="cls-6" d="M444.48,455.86c7.09,0,12.84,4.38,12.84,9.78s-5.75,9.78-12.84,9.78-12.84-4.38-12.84-9.78,5.75-9.78,12.84-9.78Z"/>
            <path class="cls-6" d="M12.84,419.3c7.09,0,12.84,4.38,12.84,9.78s-5.75,9.78-12.84,9.78-12.84-4.38-12.84-9.78,5.75-9.78,12.84-9.78Z"/>
            <path class="cls-6" d="M79.05,419.3c7.09,0,12.84,4.38,12.84,9.78s-5.75,9.78-12.84,9.78-12.84-4.38-12.84-9.78,5.75-9.78,12.84-9.78Z"/>
            <path class="cls-6" d="M145.27,421.75c5.32,0,9.63,3.28,9.63,7.33s-4.31,7.33-9.63,7.33-9.63-3.28-9.63-7.33,4.31-7.33,9.63-7.33Z"/>
            <path class="cls-6" d="M211.48,419.83c6.71,0,12.15,4.14,12.15,9.25s-5.44,9.25-12.15,9.25-12.15-4.14-12.15-9.25,5.44-9.25,12.15-9.25Z"/>
            <path class="cls-6" d="M277.69,419.83c6.71,0,12.15,4.14,12.15,9.25s-5.44,9.25-12.15,9.25-12.15-4.14-12.15-9.25,5.44-9.25,12.15-9.25Z"/>
            <path class="cls-6" d="M343.9,419.3c7.09,0,12.84,4.38,12.84,9.78s-5.75,9.78-12.84,9.78-12.84-4.38-12.84-9.78,5.75-9.78,12.84-9.78Z"/>
            <path class="cls-6" d="M410.1,419.95c6.63,0,12,4.09,12,9.14s-5.37,9.14-12,9.14-11.99-4.09-11.99-9.14,5.37-9.14,11.99-9.14Z"/>
            <path class="cls-6" d="M47.22,386.6c7.09,0,12.84,4.38,12.84,9.78s-5.75,9.78-12.84,9.78-12.84-4.38-12.84-9.78,5.75-9.78,12.84-9.78Z"/>
            <path class="cls-6" d="M113.43,389.86c4.73,0,8.56,2.92,8.56,6.52s-3.83,6.52-8.56,6.52-8.56-2.92-8.56-6.52,3.83-6.52,8.56-6.52Z"/>
            <path class="cls-6" d="M179.64,389.13c5.26,0,9.52,3.25,9.52,7.25s-4.26,7.25-9.52,7.25-9.52-3.25-9.52-7.25,4.27-7.25,9.52-7.25Z"/>
            <path class="cls-6" d="M245.85,387.83c6.21,0,11.24,3.83,11.24,8.55s-5.03,8.56-11.24,8.56-11.23-3.83-11.23-8.56,5.03-8.55,11.23-8.55Z"/>
            <path class="cls-6" d="M312.06,389.86c4.73,0,8.56,2.92,8.56,6.52s-3.83,6.52-8.56,6.52-8.56-2.92-8.56-6.52,3.83-6.52,8.56-6.52Z"/>
            <path class="cls-6" d="M378.27,386.6c7.09,0,12.84,4.38,12.84,9.78s-5.75,9.78-12.84,9.78-12.84-4.38-12.84-9.78,5.75-9.78,12.84-9.78Z"/>
            <path class="cls-6" d="M444.48,386.6c7.09,0,12.84,4.38,12.84,9.78s-5.75,9.78-12.84,9.78-12.84-4.38-12.84-9.78,5.75-9.78,12.84-9.78Z"/>
            <path class="cls-6" d="M12.84,350.05c7.09,0,12.84,4.38,12.84,9.78s-5.75,9.78-12.84,9.78-12.84-4.38-12.84-9.78,5.75-9.78,12.84-9.78Z"/>
            <path class="cls-6" d="M79.05,350.05c7.09,0,12.84,4.38,12.84,9.78s-5.75,9.78-12.84,9.78-12.84-4.38-12.84-9.78,5.75-9.78,12.84-9.78Z"/>
            <path class="cls-6" d="M145.27,352.5c5.32,0,9.63,3.28,9.63,7.33s-4.31,7.33-9.63,7.33-9.63-3.28-9.63-7.33,4.31-7.33,9.63-7.33Z"/>
            <path class="cls-6" d="M211.48,351.73c5.88,0,10.63,3.63,10.63,8.1s-4.76,8.1-10.63,8.1-10.64-3.63-10.64-8.1,4.76-8.1,10.64-8.1Z"/>
            <path class="cls-6" d="M277.69,350.58c6.71,0,12.15,4.14,12.15,9.25s-5.44,9.25-12.15,9.25-12.15-4.14-12.15-9.25,5.44-9.25,12.15-9.25Z"/>
            <path class="cls-6" d="M343.9,350.05c7.09,0,12.84,4.38,12.84,9.78s-5.75,9.78-12.84,9.78-12.84-4.38-12.84-9.78,5.75-9.78,12.84-9.78Z"/>
            <path class="cls-6" d="M410.1,351.03c6.38,0,11.55,3.94,11.55,8.79s-5.17,8.8-11.55,8.8-11.55-3.94-11.55-8.8,5.17-8.79,11.55-8.79Z"/>
            <path class="cls-6" d="M47.22,317.35c7.09,0,12.84,4.38,12.84,9.78s-5.75,9.78-12.84,9.78-12.84-4.38-12.84-9.78,5.75-9.78,12.84-9.78Z"/>
            <path class="cls-6" d="M113.43,320.61c4.73,0,8.56,2.92,8.56,6.52s-3.83,6.52-8.56,6.52-8.56-2.92-8.56-6.52,3.83-6.52,8.56-6.52Z"/>
            <path class="cls-6" d="M179.64,316.13c7.98,0,14.44,4.93,14.44,11s-6.47,11-14.44,11-14.45-4.93-14.45-11,6.47-11,14.45-11Z"/>
            <path class="cls-6" d="M245.85,318.57c6.21,0,11.24,3.83,11.24,8.56s-5.03,8.55-11.24,8.55-11.23-3.83-11.23-8.55,5.03-8.56,11.23-8.56Z"/>
            <path class="cls-6" d="M312.06,318.2c6.48,0,11.73,4,11.73,8.93s-5.25,8.93-11.73,8.93-11.73-4-11.73-8.93,5.25-8.93,11.73-8.93Z"/>
            <path class="cls-6" d="M378.27,317.35c7.09,0,12.84,4.38,12.84,9.78s-5.75,9.78-12.84,9.78-12.84-4.38-12.84-9.78,5.75-9.78,12.84-9.78Z"/>
            <path class="cls-6" d="M444.48,317.35c7.09,0,12.84,4.38,12.84,9.78s-5.75,9.78-12.84,9.78-12.84-4.38-12.84-9.78,5.75-9.78,12.84-9.78Z"/>
            <path class="cls-6" d="M12.84,280.8c7.09,0,12.84,4.38,12.84,9.78s-5.75,9.78-12.84,9.78-12.84-4.38-12.84-9.78,5.75-9.78,12.84-9.78Z"/>
            <path class="cls-6" d="M79.05,282.99c5.51,0,9.97,3.4,9.97,7.59s-4.46,7.59-9.97,7.59-9.97-3.4-9.97-7.59,4.46-7.59,9.97-7.59Z"/>
            <path class="cls-6" d="M145.27,283.24c5.32,0,9.63,3.29,9.63,7.33s-4.31,7.34-9.63,7.34-9.63-3.28-9.63-7.34,4.31-7.33,9.63-7.33Z"/>
            <path class="cls-6" d="M211.48,281.32c6.71,0,12.15,4.14,12.15,9.25s-5.44,9.25-12.15,9.25-12.15-4.14-12.15-9.25,5.44-9.25,12.15-9.25Z"/>
            <path class="cls-6" d="M277.69,281.32c6.71,0,12.15,4.14,12.15,9.25s-5.44,9.25-12.15,9.25-12.15-4.14-12.15-9.25,5.44-9.25,12.15-9.25Z"/>
            <path class="cls-6" d="M343.9,282.58c5.8,0,10.51,3.58,10.51,8s-4.7,8-10.51,8-10.5-3.58-10.5-8,4.7-8,10.5-8Z"/>
            <path class="cls-6" d="M410.1,281.44c6.63,0,12,4.09,12,9.14s-5.37,9.14-12,9.14-11.99-4.09-11.99-9.14,5.37-9.14,11.99-9.14Z"/>
            <path class="cls-6" d="M47.22,248.1c7.09,0,12.84,4.38,12.84,9.78s-5.75,9.78-12.84,9.78-12.84-4.38-12.84-9.78,5.75-9.78,12.84-9.78Z"/>
            <path class="cls-6" d="M113.43,249.32c6.2,0,11.24,3.83,11.24,8.56s-5.03,8.56-11.24,8.56-11.24-3.83-11.24-8.56,5.03-8.56,11.24-8.56Z"/>
            <path class="cls-6" d="M179.64,250.59c5.28,0,9.56,3.26,9.56,7.29s-4.28,7.29-9.56,7.29-9.57-3.26-9.57-7.29,4.28-7.29,9.57-7.29Z"/>
            <path class="cls-6" d="M245.85,249.32c6.21,0,11.24,3.83,11.24,8.56s-5.03,8.56-11.24,8.56-11.23-3.83-11.23-8.56,5.03-8.56,11.23-8.56Z"/>
            <path class="cls-6" d="M312.06,251.36c4.73,0,8.56,2.92,8.56,6.52s-3.83,6.52-8.56,6.52-8.56-2.92-8.56-6.52,3.83-6.52,8.56-6.52Z"/>
            <path class="cls-6" d="M378.27,253.4c3.25,0,5.89,2.01,5.89,4.48s-2.63,4.48-5.89,4.48-5.89-2.01-5.89-4.48,2.64-4.48,5.89-4.48Z"/>
            <path class="cls-6" d="M444.48,248.1c7.09,0,12.84,4.38,12.84,9.78s-5.75,9.78-12.84,9.78-12.84-4.38-12.84-9.78,5.75-9.78,12.84-9.78Z"/>
            <path class="cls-6" d="M12.84,211.55c7.09,0,12.84,4.38,12.84,9.78s-5.75,9.78-12.84,9.78-12.84-4.38-12.84-9.78,5.75-9.78,12.84-9.78Z"/>
            <path class="cls-6" d="M79.05,211.55c7.09,0,12.84,4.38,12.84,9.78s-5.75,9.78-12.84,9.78-12.84-4.38-12.84-9.78,5.75-9.78,12.84-9.78Z"/>
            <path class="cls-6" d="M145.27,213.99c5.32,0,9.63,3.28,9.63,7.34s-4.31,7.33-9.63,7.33-9.63-3.29-9.63-7.33,4.31-7.34,9.63-7.34Z"/>
            <path class="cls-6" d="M211.48,212.07c6.71,0,12.15,4.14,12.15,9.25s-5.44,9.25-12.15,9.25-12.15-4.14-12.15-9.25,5.44-9.25,12.15-9.25Z"/>
            <path class="cls-6" d="M277.69,212.07c6.71,0,12.15,4.14,12.15,9.25s-5.44,9.25-12.15,9.25-12.15-4.14-12.15-9.25,5.44-9.25,12.15-9.25Z"/>
            <path class="cls-6" d="M343.9,211.55c7.09,0,12.84,4.38,12.84,9.78s-5.75,9.78-12.84,9.78-12.84-4.38-12.84-9.78,5.75-9.78,12.84-9.78Z"/>
            <path class="cls-6" d="M410.1,212.19c6.63,0,12,4.09,12,9.14s-5.37,9.13-12,9.13-11.99-4.09-11.99-9.13,5.37-9.14,11.99-9.14Z"/>
            <path class="cls-6" d="M47.22,178.85c7.09,0,12.84,4.38,12.84,9.78s-5.75,9.78-12.84,9.78-12.84-4.38-12.84-9.78,5.75-9.78,12.84-9.78Z"/>
            <path class="cls-6" d="M113.43,182.11c4.73,0,8.56,2.92,8.56,6.52s-3.83,6.52-8.56,6.52-8.56-2.92-8.56-6.52,3.83-6.52,8.56-6.52Z"/>
            <path class="cls-6" d="M179.64,183.48c3.73,0,6.76,2.31,6.76,5.15s-3.03,5.15-6.76,5.15-6.76-2.3-6.76-5.15,3.03-5.15,6.76-5.15Z"/>
            <path class="cls-6" d="M245.85,180.07c6.21,0,11.24,3.83,11.24,8.56s-5.03,8.56-11.24,8.56-11.23-3.83-11.23-8.56,5.03-8.56,11.23-8.56Z"/>
            <ellipse class="cls-6" cx="312.06" cy="188.63" rx="12.76" ry="9.71"/>
            <path class="cls-6" d="M378.27,178.85c7.09,0,12.84,4.38,12.84,9.78s-5.75,9.78-12.84,9.78-12.84-4.38-12.84-9.78,5.75-9.78,12.84-9.78Z"/>
            <path class="cls-6" d="M444.48,178.85c7.09,0,12.84,4.38,12.84,9.78s-5.75,9.78-12.84,9.78-12.84-4.38-12.84-9.78,5.75-9.78,12.84-9.78Z"/>
            <path class="cls-6" d="M12.84,142.29c7.09,0,12.84,4.38,12.84,9.78s-5.75,9.78-12.84,9.78-12.84-4.38-12.84-9.78,5.75-9.78,12.84-9.78Z"/>
            <path class="cls-6" d="M79.05,142.29c7.09,0,12.84,4.38,12.84,9.78s-5.75,9.78-12.84,9.78-12.84-4.38-12.84-9.78,5.75-9.78,12.84-9.78Z"/>
            <path class="cls-6" d="M145.27,144.74c5.32,0,9.63,3.28,9.63,7.33s-4.31,7.33-9.63,7.33-9.63-3.28-9.63-7.33,4.31-7.33,9.63-7.33Z"/>
            <path class="cls-6" d="M211.48,142.82c6.71,0,12.15,4.14,12.15,9.26s-5.44,9.25-12.15,9.25-12.15-4.14-12.15-9.25,5.44-9.26,12.15-9.26Z"/>
            <path class="cls-6" d="M277.69,142.82c6.71,0,12.15,4.14,12.15,9.26s-5.44,9.25-12.15,9.25-12.15-4.14-12.15-9.25,5.44-9.26,12.15-9.26Z"/>
            <path class="cls-6" d="M343.9,142.29c7.09,0,12.84,4.38,12.84,9.78s-5.75,9.78-12.84,9.78-12.84-4.38-12.84-9.78,5.75-9.78,12.84-9.78Z"/>
            <path class="cls-6" d="M410.1,142.94c6.63,0,12,4.09,12,9.13s-5.37,9.13-12,9.13-11.99-4.09-11.99-9.13,5.37-9.13,11.99-9.13Z"/>
            <path class="cls-6" d="M47.22,109.59c7.09,0,12.84,4.38,12.84,9.78s-5.75,9.78-12.84,9.78-12.84-4.38-12.84-9.78,5.75-9.78,12.84-9.78Z"/>
            <path class="cls-6" d="M113.43,112.85c4.73,0,8.56,2.92,8.56,6.52s-3.83,6.52-8.56,6.52-8.56-2.92-8.56-6.52,3.83-6.52,8.56-6.52Z"/>
            <path class="cls-6" d="M179.64,109.59c7.09,0,12.84,4.38,12.84,9.78s-5.75,9.78-12.84,9.78-12.84-4.38-12.84-9.78,5.75-9.78,12.84-9.78Z"/>
            <path class="cls-6" d="M245.85,110.81c6.21,0,11.24,3.83,11.24,8.56s-5.03,8.56-11.24,8.56-11.23-3.83-11.23-8.56,5.03-8.56,11.23-8.56Z"/>
            <path class="cls-6" d="M312.06,112.85c4.73,0,8.56,2.92,8.56,6.52s-3.83,6.52-8.56,6.52-8.56-2.92-8.56-6.52,3.83-6.52,8.56-6.52Z"/>
            <path class="cls-6" d="M378.27,109.59c7.09,0,12.84,4.38,12.84,9.78s-5.75,9.78-12.84,9.78-12.84-4.38-12.84-9.78,5.75-9.78,12.84-9.78Z"/>
            <path class="cls-6" d="M444.48,109.59c7.09,0,12.84,4.38,12.84,9.78s-5.75,9.78-12.84,9.78-12.84-4.38-12.84-9.78,5.75-9.78,12.84-9.78Z"/>
            <path class="cls-6" d="M12.84,73.04c7.09,0,12.84,4.38,12.84,9.78s-5.75,9.78-12.84,9.78S0,88.21,0,82.82s5.75-9.78,12.84-9.78Z"/>
            <path class="cls-6" d="M79.05,73.04c7.09,0,12.84,4.38,12.84,9.78s-5.75,9.78-12.84,9.78-12.84-4.38-12.84-9.78c0-5.4,5.75-9.78,12.84-9.78Z"/>
            <path class="cls-6" d="M145.27,75.48c5.32,0,9.63,3.28,9.63,7.33s-4.31,7.34-9.63,7.34-9.63-3.28-9.63-7.34,4.31-7.33,9.63-7.33Z"/>
            <path class="cls-6" d="M211.48,73.56c6.71,0,12.15,4.14,12.15,9.25s-5.44,9.25-12.15,9.25-12.15-4.14-12.15-9.25,5.44-9.25,12.15-9.25Z"/>
            <path class="cls-6" d="M277.69,73.56c6.71,0,12.15,4.14,12.15,9.25s-5.44,9.25-12.15,9.25-12.15-4.14-12.15-9.25,5.44-9.25,12.15-9.25Z"/>
            <path class="cls-6" d="M343.9,73.04c7.09,0,12.84,4.38,12.84,9.78s-5.75,9.78-12.84,9.78-12.84-4.38-12.84-9.78,5.75-9.78,12.84-9.78Z"/>
            <path class="cls-6" d="M410.1,73.68c6.63,0,12,4.09,12,9.14s-5.37,9.13-12,9.13-11.99-4.09-11.99-9.13,5.37-9.14,11.99-9.14Z"/>
          </g>
        </g>
        <path class="cls-2" d="M215.23,80.93S159.87,10.66,153.5,6.3C147.14,1.94,79.05,0,63.14,0c-11.45,32.95-11.45,80.93-11.45,80.93,0,0,42,25.2,88.45,25.2s70-14.54,70-14.54l-7-3.39s-42.63,10.18-63,7.27c-20.36-2.91-62.36-25.69-62.36-25.69l7.64-41.19s36.27-4.36,48.04,1.45c11.77,5.82,73.5,55.73,73.5,55.73l8.27-4.85Z"/>
        <path class="cls-2" d="M243.23,81.9s30.55-27.62,57.91-38.29c27.36-10.66,53.45-8.24,53.45-8.24,0,0,24.18,29.56,26.09,37.32,1.91,7.75-4.45,18.42-28.63,18.42s-108.82-2.91-108.82-2.91l-7,6.78s70.64,8.72,111.36,7.75c40.72-.97,54.72-15.99,56-31.5,1.27-15.51-44.54-68.82-44.54-68.82,0,0-89.09,19.38-122.82,72.69-.64,4.85,7,6.79,7,6.79Z"/>
        <path class="cls-2" d="M224.77,73.42c7.64.11,13.36,1.94,16.86,6.3,3.5,4.36,5.74,9.63,3.5,12.84-2.24,3.21-11.77,5.82-20.36,5.82s-26.27-3.28-24.11-9.61c2.15-6.33,6.61-15.59,24.11-15.35Z"/>
        <path class="cls-2" d="M218.41,93.29s-20.68,46.77-32.77,64.46c-12.09,17.69-23.55,36.59-18.77,56.7,4.77,20.11,7.01,81.66-1.11,96.44-8.75-1.94-36.75-8.24-36.75-8.24,0,0,18.45-65.67,9.54-87.72-8.91-22.05,8.27-48.7,23.54-63.97,15.27-15.27,49.95-61.31,49.95-61.31l6.36,3.64Z"/>
        <path class="cls-2" d="M228.59,91.84s35.31,58.64,44.23,87.72c8.91,29.08-20.05,85.54-6.05,113.89,10.82-.48,34.68-5.82,34.68-5.82,0,0-10.18-28.59-4.45-49.92,5.73-21.32,3.82-48.95-3.5-65.67-7.32-16.72-57.31-84.09-57.31-84.09l-7.6,3.88Z"/>
        <rect class="cls-2" x="220.34" y="87.96" width="17.78" height="375.51"/>
      </g>
    </g>
  </g>
</svg>