<?xml version="1.0" encoding="UTF-8"?>
<svg id="Layer_1" data-name="Layer 1" xmlns="http://www.w3.org/2000/svg" viewBox="0 0 293.14 308.05">
  <defs>
    <style>
      .cls-1 {
        fill: #e5175d;
      }

      .cls-2 {
        fill: #221c42;
      }

      .cls-3 {
        fill: #302c6a;
      }
    </style>
  </defs>
  <path class="cls-3" d="M143.18,121.91s22.72-19.6,25.78-52.69C172.03,36.14,178.15,0,205.72,0s43.5,22.05,43.5,22.05c0,0,30.63-7.35,37.37,17.77,6.74,25.12-28.9,104.76-143.4,82.09Z"/>
  <path class="cls-3" d="M121,123.01s-56.36-3.06-86.99-27.57C3.37,70.94,2.76,34.19,48.1,36.64c32.47-23.89,58.81-23.28,70.45-6.74,11.64,16.54,11.03,80.25,31.24,93.12-12.87,1.22-28.79,0-28.79,0Z"/>
  <path class="cls-2" d="M157.93,114.56s18.38-30.91,20.22-51.6c1.84-20.69,7.96-46.42,23.89-45.81,15.93.61,12.86,41.66,0,64.32-12.86,22.67-44.11,33.08-44.11,33.08Z"/>
  <path class="cls-2" d="M131.41,108.31s-8.27-28.49-11.03-41.35c-2.76-12.86-8.88-37.98-23.59-34.61-14.7,3.37-3.5,31.8,3.55,44.6,9.15,16.6,31.06,31.36,31.06,31.36Z"/>
  <rect class="cls-1" y="119.68" width="293.13" height="188.38"/>
  <rect class="cls-3" x="123.68" y="119.68" width="45.78" height="188.38"/>
</svg>