<?xml version="1.0" encoding="UTF-8"?>
<svg id="Layer_1" data-name="Layer 1" xmlns="http://www.w3.org/2000/svg" xmlns:xlink="http://www.w3.org/1999/xlink" viewBox="0 0 324.39 414.99">
  <defs>
    <style>
      .cls-1 {
        fill: none;
      }

      .cls-2 {
        fill: #5abe82;
      }

      .cls-3 {
        fill: #302c6a;
      }

      .cls-4 {
        clip-path: url(#clippath);
      }

      .cls-5 {
        fill: #81c998;
      }
    </style>
    <clipPath id="clippath">
      <rect class="cls-1" y="142.23" width="324.39" height="272.76"/>
    </clipPath>
  </defs>
  <rect class="cls-5" y="142.23" width="324.39" height="272.76"/>
  <g class="cls-4">
    <path class="cls-2" d="M277.49,407.55c-8.12-6.15-16.9-12.84-26.31-19.75-9.4-6.92-19.5-13.97-29.87-21.38-10.41-7.34-21.07-15.06-31.76-23.09-5.35-4.01-10.71-8.1-16.08-12.22-5.34-4.16-10.7-8.33-16.06-12.51-5.35-4.19-10.7-8.38-16.02-12.55-5.36-4.13-10.69-8.25-15.99-12.33-10.64-8.1-21.1-16.08-31.23-23.8-5.08-3.83-10.08-7.6-14.98-11.29-4.89-3.69-9.71-7.26-14.42-10.71-9.38-6.96-18.32-13.42-26.58-19.39-8.25-5.98-15.8-11.48-22.57-16.24-6.76-4.78-12.62-9-17.5-12.39-4.88-3.4-8.72-6.06-11.33-7.88-2.63-1.8-4.03-2.76-4.03-2.76l-.27.36s1.32,1.07,3.79,3.09c2.48,1.99,6.13,4.92,10.76,8.64,4.63,3.73,10.33,8.16,16.83,13.29,6.49,5.15,13.89,10.84,21.96,17.06,8.06,6.23,16.79,12.98,26.12,20.01,4.64,3.54,9.43,7.15,14.35,10.8,4.92,3.65,9.95,7.38,15.06,11.18,10.27,7.54,20.88,15.32,31.66,23.24,5.41,3.92,10.87,7.88,16.35,11.85,5.51,3.93,11.04,7.88,16.57,11.82,5.52,3.96,11.04,7.92,16.53,11.87,5.47,3.98,10.9,7.97,16.26,11.97,10.72,7.99,21.14,16.03,31.13,23.94,10.03,7.85,19.65,15.54,28.94,22.61,9.29,7.07,18.19,13.6,26.39,19.65,8.23,6.01,15.77,11.51,22.51,16.32,3.47,2.49,6.72,4.81,9.72,6.93h3.99c-3.55-2.82-7.52-5.95-11.9-9.35-6.52-5.11-13.93-10.79-22.02-16.99ZM173.47,416.89c-5.34-4.16-10.7-8.33-16.06-12.51-5.35-4.19-10.7-8.38-16.02-12.55-5.36-4.13-10.69-8.25-15.99-12.33-10.64-8.11-21.1-16.08-31.23-23.8-5.08-3.83-10.08-7.6-14.98-11.29-4.89-3.69-9.71-7.26-14.42-10.71-9.38-6.96-18.32-13.42-26.58-19.39-8.25-5.98-15.8-11.48-22.57-16.24-6.76-4.78-12.62-9-17.5-12.39-4.88-3.4-8.72-6.06-11.33-7.88-2.63-1.8-4.03-2.76-4.03-2.76l-.27.36s1.32,1.07,3.79,3.09c2.48,1.99,6.13,4.92,10.76,8.64,4.63,3.73,10.33,8.16,16.83,13.29,6.49,5.15,13.89,10.84,21.96,17.06,8.06,6.23,16.79,12.98,26.12,20.01,4.64,3.54,9.43,7.15,14.35,10.8,4.92,3.65,9.95,7.38,15.06,11.18,10.27,7.54,20.88,15.32,31.66,23.24,5.41,3.93,10.87,7.88,16.35,11.85,5.51,3.93,11.04,7.88,16.57,11.82,5.52,3.96,11.04,7.92,16.53,11.87,5.47,3.98,10.9,7.97,16.26,11.97,1.64,1.22,3.26,2.45,4.89,3.67h2.37c-2.14-1.58-4.28-3.17-6.43-4.78-5.35-4.01-10.71-8.09-16.08-12.22ZM38.16,400.12c-8.23-6.01-15.78-11.51-22.51-16.32-6.73-4.83-12.62-9-17.5-12.39-4.89-3.39-8.73-6.05-11.35-7.86-2.64-1.79-4.05-2.74-4.05-2.74l-.27.36s1.31,1.08,3.77,3.11c2.48,2,6.12,4.93,10.75,8.66,4.64,3.72,10.3,8.2,16.83,13.29,6.52,5.11,13.93,10.79,22.02,16.99,8.12,6.15,16.9,12.84,26.31,19.75,4.89,3.6,9.96,7.23,15.17,10.93h5.36c-6.19-4.87-12.24-9.63-18.14-14.12-9.29-7.07-18.19-13.6-26.38-19.65ZM316.34,352.05c-4.64-3.72-10.3-8.2-16.83-13.29-6.52-5.11-13.93-10.79-22.02-16.99-8.12-6.15-16.9-12.84-26.31-19.75-9.4-6.92-19.5-13.97-29.87-21.38-10.41-7.34-21.07-15.07-31.76-23.09-5.35-4.01-10.71-8.09-16.08-12.22-5.34-4.16-10.7-8.33-16.06-12.51-5.35-4.19-10.7-8.38-16.02-12.55-5.36-4.13-10.69-8.25-15.99-12.33-10.64-8.1-21.1-16.08-31.23-23.8-5.08-3.83-10.08-7.6-14.98-11.29-4.89-3.69-9.71-7.26-14.42-10.71-9.38-6.96-18.32-13.42-26.58-19.4-8.25-5.98-15.8-11.48-22.57-16.24-6.76-4.78-12.62-9-17.5-12.39-.54-.37-1.05-.73-1.56-1.09h-2.68c1,.8,2.05,1.64,3.16,2.54,4.63,3.73,10.33,8.16,16.83,13.29,6.49,5.15,13.89,10.84,21.96,17.06,8.06,6.23,16.79,12.98,26.12,20.01,4.64,3.54,9.43,7.15,14.35,10.8,4.92,3.65,9.95,7.38,15.06,11.18,10.27,7.54,20.88,15.32,31.66,23.24,5.41,3.93,10.87,7.88,16.35,11.85,5.51,3.93,11.04,7.88,16.57,11.82,5.52,3.96,11.04,7.92,16.53,11.87,5.47,3.98,10.9,7.97,16.26,11.97,10.72,7.99,21.14,16.03,31.13,23.94,10.03,7.85,19.65,15.54,28.94,22.61,9.29,7.07,18.19,13.6,26.39,19.65,8.23,6.01,15.77,11.51,22.51,16.32,6.73,4.83,12.62,9,17.5,12.39,4.89,3.39,8.73,6.05,11.35,7.86,2.64,1.79,4.04,2.74,4.04,2.74l.27-.36s-1.31-1.08-3.77-3.11c-2.48-2-6.12-4.93-10.75-8.66ZM275.18,153.3c8.23,6.01,15.77,11.51,22.51,16.32,6.73,4.83,12.62,9,17.5,12.39,4.89,3.39,8.73,6.05,11.35,7.86,2.64,1.79,4.04,2.74,4.04,2.74l.27-.36s-1.31-1.08-3.77-3.11c-2.48-2-6.12-4.93-10.75-8.66-4.64-3.72-10.3-8.2-16.83-13.29-6.52-5.11-13.93-10.79-22.02-16.99-8.12-6.15-16.9-12.84-26.31-19.75-7.72-5.68-15.92-11.46-24.33-17.44h-4.47c9.12,7.16,17.92,14.16,26.42,20.63,9.29,7.07,18.19,13.6,26.39,19.65ZM316.34,266.27c-4.64-3.72-10.3-8.2-16.83-13.29-6.52-5.11-13.93-10.79-22.02-16.99-8.12-6.15-16.9-12.84-26.31-19.75-9.4-6.92-19.5-13.97-29.87-21.38-10.41-7.34-21.07-15.06-31.76-23.09-5.35-4.01-10.71-8.1-16.08-12.22-5.34-4.16-10.7-8.33-16.06-12.51-5.35-4.19-10.7-8.38-16.02-12.55-5.36-4.13-10.69-8.25-15.99-12.33-4.03-3.07-8.02-6.11-11.99-9.14h-7.22c5.54,4.07,11.15,8.19,16.82,12.34,5.41,3.92,10.87,7.88,16.35,11.85,5.51,3.93,11.04,7.88,16.57,11.82,5.52,3.96,11.04,7.92,16.53,11.87,5.47,3.98,10.9,7.97,16.26,11.97,10.72,7.99,21.14,16.03,31.13,23.94,10.03,7.85,19.65,15.54,28.94,22.61,9.29,7.07,18.19,13.6,26.39,19.65,8.23,6.01,15.77,11.51,22.51,16.32,6.73,4.83,12.62,9,17.5,12.39,4.89,3.39,8.73,6.05,11.35,7.86,2.64,1.79,4.04,2.74,4.04,2.74l.27-.36s-1.31-1.08-3.77-3.11c-2.48-2-6.12-4.93-10.75-8.66Z"/>
  </g>
  <path class="cls-3" d="M157.94,141.77s-19.46-41.77-17.84-76.64c1.62-34.87,15.41-39.13,26.56-37.71,11.15,1.42,23.72,13.18,20.88,45.62-2.84,32.44-23.57,71.57-23.57,71.57h4.71s30.61-47.85,32.84-80.29C203.76,31.88,194.43,1.67,160.78.05c-33.66-1.62-41.77,38.52-39.54,63.26,2.23,24.73,23.52,69.54,33.45,81.3,2.03-1.01,3.24-2.84,3.24-2.84Z"/>
  <path class="cls-3" d="M148.41,142.17s-20.55-31.63-27.51-51.7c-6.96-20.07-20.34-57.17-42.64-64.47-22.3-7.3-45.01,6.08-50.28,25.75-5.27,19.67,6.89,43.79,45.62,69.74,38.72,25.95,69.74,29.8,69.74,29.8l.4-4.05s-28.18-8.31-50.68-23.52c-22.5-15.21-51.9-52.51-40.35-66.5,11.56-13.99,31.43-9.03,41.97,10.23,10.54,19.26,41.06,64.78,49.37,75.53,3.65,1.83,4.35-.81,4.35-.81Z"/>
  <path class="cls-3" d="M136.04,147.44s-23.92-31.63-41.36-37.91c-17.44-6.29-42.17-1.62-45.21,6.89-3.04,8.52,9.93,19.67,26.36,25.34,16.42,5.68,51.5,3.85,51.5,3.85l1.88,2.45s-31.28,9.54-67.16,0c-35.89-9.54-41.46-24.14-35.23-38.33,6.23-14.19,48-22.5,64.42-15,16.42,7.5,29.45,19.92,47.87,51.01-.63,1.7-3.07,1.7-3.07,1.7Z"/>
  <path class="cls-3" d="M175.89,142.17s20.55-31.63,27.51-51.7c6.96-20.07,20.34-57.17,42.64-64.47,22.3-7.3,45.01,6.08,50.28,25.75,5.27,19.67-6.89,43.79-45.62,69.74-38.72,25.95-69.74,29.8-69.74,29.8l-.4-4.05s28.18-8.31,50.68-23.52c22.5-15.21,51.9-52.51,40.35-66.5-11.56-13.99-31.42-9.03-41.97,10.23-10.54,19.26-41.06,64.78-49.38,75.53-3.65,1.83-4.35-.81-4.35-.81Z"/>
  <path class="cls-3" d="M188.25,147.44s23.92-31.63,41.36-37.91c17.43-6.29,42.17-1.62,45.21,6.89,3.04,8.52-9.93,19.67-26.36,25.34-16.42,5.68-51.5,3.85-51.5,3.85l-1.88,2.45s31.28,9.54,67.16,0c35.89-9.54,41.46-24.14,35.23-38.33-6.23-14.19-48-22.5-64.42-15-16.42,7.5-29.45,19.92-47.87,51.01.63,1.7,3.07,1.7,3.07,1.7Z"/>
  <path class="cls-3" d="M190.04,145.24c0,5.21-12.77,9.43-28.52,9.43s-28.52-4.22-28.52-9.43,12.77-9.43,28.52-9.43,28.52,4.22,28.52,9.43Z"/>
  <path class="cls-3" d="M159.76,151.3s-23.25,27.98-26.77,47.17c-3.51,19.19-1.3,55.69,6.11,78.94,7.41,23.25,3.89,92.45-13.95,100.83-4.6-10.54-14.6-26.49-24.87-27.57,12.97-17.3,26.5-34.06,19.74-63.26-6.76-29.2-12.98-77.58-5.41-93.26,7.57-15.68,38.12-44.87,38.12-44.87l7.03,2.03Z"/>
  <path class="cls-3" d="M170.04,149.27l5.86-4.03s29.82,18.35,35.23,38.36c5.41,20-7.84,64.07-1.35,91.91-5.68-.27-21.36,16.76-21.36,16.76,0,0-8.11-32.17-4.32-57.04,3.79-24.87,14.87-39.47,10-54.33-4.87-14.87-24.06-31.63-24.06-31.63Z"/>
  <g>
    <polygon class="cls-3" points="254.76 414.99 324.39 340.44 324.39 277.24 195.75 414.99 254.76 414.99"/>
    <polygon class="cls-3" points="0 313.79 160.22 142.23 101.2 142.23 0 250.6 0 313.79"/>
  </g>
</svg>