<?xml version="1.0" encoding="UTF-8"?>
<svg xmlns="http://www.w3.org/2000/svg" xmlns:xlink="http://www.w3.org/1999/xlink" viewBox="0 0 329.26 404.07">
  <defs>
    <style>
      .cls-1 {
        fill: #221c42;
        mix-blend-mode: multiply;
        opacity: .3;
      }

      .cls-2 {
        fill: none;
      }

      .cls-3 {
        clip-path: url(#clippath-1);
      }

      .cls-4 {
        isolation: isolate;
      }

      .cls-5 {
        fill: #5abe82;
      }

      .cls-6 {
        fill: #5ec7cd;
      }

      .cls-7 {
        fill: #302c6a;
      }

      .cls-8 {
        fill: #81c998;
      }
    </style>
    <clipPath id="clippath-1">
      <polygon class="cls-2" points="329.26 108.22 0 108.22 0 207.49 13.83 207.49 13.83 404.07 315.43 404.07 315.43 207.49 329.26 207.49 329.26 108.22"/>
    </clipPath>
  </defs>
  <g class="cls-4">
    <g id="Layer_1" data-name="Layer 1">
      <g>
        <path class="cls-8" d="M168.73,102.96s2.44-70.44-10-87.74C146.29-2.08,128.99.09,108.99.09S35.46-.45,36,39.55c-17.3,16.76-16.76,43.25,4.33,56.23,21.09,12.98,62.17,12.43,85.42,12.43s42.98-5.25,42.98-5.25Z"/>
        <path class="cls-5" d="M161.97,91.73s-1.89-38.52-4.32-52.01c-2.2-12.21-9.27-24.85-18.92-25.04-10.54-.2-20.71,10.3-21.08,19.73-.43,10.81,1.35,21.54,13.51,34.12,11.31,11.7,30.82,23.19,30.82,23.19Z"/>
        <path class="cls-5" d="M150.35,96.86s-15.14-9.73-20.27-15.95c-5.14-6.22-14.59-17.03-24.6-16.76-10,.27-16.22,16.49-4.87,27.57s31.17,9.72,49.74,5.13Z"/>
        <path class="cls-8" d="M170.4,102.96s-2.44-70.44,10-87.74C192.84-2.08,210.14.09,230.14.09s73.53-.54,72.99,39.47c17.3,16.76,16.76,43.25-4.33,56.23-21.09,12.98-62.17,12.43-85.42,12.43s-42.98-5.25-42.98-5.25Z"/>
        <path class="cls-5" d="M177.16,91.73s1.89-38.52,4.32-52.01c2.2-12.21,9.27-24.85,18.92-25.04,10.54-.2,20.71,10.3,21.09,19.73.43,10.81-1.35,21.54-13.51,34.12-11.31,11.7-30.82,23.19-30.82,23.19Z"/>
        <path class="cls-5" d="M188.78,96.86s15.14-9.73,20.27-15.95c5.14-6.22,14.59-17.03,24.6-16.76,10,.27,16.22,16.49,4.87,27.57-11.35,11.08-31.17,9.72-49.74,5.13Z"/>
        <path class="cls-8" d="M190.46,106.1c0,8.24-10.46,14.92-23.35,14.92s-23.35-6.68-23.35-14.92,10.46-14.92,23.35-14.92,23.35,6.68,23.35,14.92Z"/>
        <polygon class="cls-7" points="329.26 108.22 0 108.22 0 207.49 13.83 207.49 13.83 404.07 315.43 404.07 315.43 207.49 329.26 207.49 329.26 108.22"/>
        <g class="cls-3">
          <g>
            <path class="cls-6" d="M342.87,89.92c.48-.82.76-1.78.76-2.8,0-3.05-2.48-5.53-5.53-5.53-1.89,0-3.56.95-4.56,2.39-1-1.45-2.67-2.39-4.56-2.39-3.06,0-5.53,2.48-5.53,5.53,0,1.02.28,1.98.76,2.8l.18.29c.15.23,9.15,11.61,9.15,11.61l9.33-11.9Z"/>
            <path class="cls-6" d="M342.87,149.71c.48-.82.76-1.78.76-2.8,0-3.06-2.48-5.53-5.53-5.53-1.89,0-3.56.95-4.56,2.39-1-1.45-2.67-2.39-4.56-2.39-3.06,0-5.53,2.48-5.53,5.53,0,1.02.28,1.97.76,2.8l.18.3c.15.23,9.15,11.61,9.15,11.61l9.33-11.9Z"/>
            <path class="cls-6" d="M342.87,209.51c.48-.82.76-1.78.76-2.79,0-3.06-2.48-5.53-5.53-5.53-1.89,0-3.56.95-4.56,2.39-1-1.45-2.67-2.39-4.56-2.39-3.06,0-5.53,2.48-5.53,5.53,0,1.02.28,1.97.76,2.79l.18.3c.15.22,9.15,11.61,9.15,11.61l9.33-11.9Z"/>
            <path class="cls-6" d="M342.87,269.3c.48-.82.76-1.78.76-2.8,0-3.05-2.48-5.53-5.53-5.53-1.89,0-3.56.95-4.56,2.39-1-1.45-2.67-2.39-4.56-2.39-3.06,0-5.53,2.48-5.53,5.53,0,1.02.28,1.98.76,2.8l.18.29c.15.23,9.15,11.61,9.15,11.61l9.33-11.9Z"/>
            <path class="cls-6" d="M342.87,329.1c.48-.82.76-1.78.76-2.79,0-3.06-2.48-5.54-5.53-5.54-1.89,0-3.56.95-4.56,2.39-1-1.45-2.67-2.39-4.56-2.39-3.06,0-5.53,2.48-5.53,5.54,0,1.02.28,1.97.76,2.79l.18.3c.15.23,9.15,11.61,9.15,11.61l9.33-11.9Z"/>
            <path class="cls-6" d="M342.87,388.89c.48-.82.76-1.78.76-2.79,0-3.05-2.48-5.53-5.53-5.53-1.89,0-3.56.95-4.56,2.39-1-1.45-2.67-2.39-4.56-2.39-3.06,0-5.53,2.48-5.53,5.53,0,1.02.28,1.97.76,2.79l.18.3c.15.23,9.15,11.61,9.15,11.61l9.33-11.91Z"/>
            <path class="cls-6" d="M305.98,119.82c.48-.82.76-1.78.76-2.8,0-3.05-2.48-5.53-5.53-5.53-1.89,0-3.56.95-4.56,2.39-1-1.45-2.67-2.39-4.56-2.39-3.05,0-5.53,2.48-5.53,5.53,0,1.02.28,1.97.76,2.8l.18.29c.15.22,9.15,11.61,9.15,11.61l9.33-11.9Z"/>
            <path class="cls-6" d="M305.98,179.61c.48-.82.76-1.78.76-2.79,0-3.06-2.48-5.53-5.53-5.53-1.89,0-3.56.95-4.56,2.39-1-1.45-2.67-2.39-4.56-2.39-3.05,0-5.53,2.48-5.53,5.53,0,1.02.28,1.97.76,2.79l.18.29c.15.23,9.15,11.61,9.15,11.61l9.33-11.9Z"/>
            <path class="cls-6" d="M305.98,239.4c.48-.82.76-1.78.76-2.79,0-3.06-2.48-5.53-5.53-5.53-1.89,0-3.56.95-4.56,2.39-1-1.45-2.67-2.39-4.56-2.39-3.05,0-5.53,2.48-5.53,5.53,0,1.02.28,1.97.76,2.79l.18.29c.15.23,9.15,11.61,9.15,11.61l9.33-11.9Z"/>
            <path class="cls-6" d="M305.98,299.2c.48-.82.76-1.78.76-2.8,0-3.05-2.48-5.53-5.53-5.53-1.89,0-3.56.95-4.56,2.39-1-1.45-2.67-2.39-4.56-2.39-3.05,0-5.53,2.48-5.53,5.53,0,1.02.28,1.97.76,2.8l.18.29c.15.23,9.15,11.61,9.15,11.61l9.33-11.9Z"/>
            <path class="cls-6" d="M305.98,358.99c.48-.82.76-1.78.76-2.79,0-3.06-2.48-5.53-5.53-5.53-1.89,0-3.56.95-4.56,2.39-1-1.45-2.67-2.39-4.56-2.39-3.05,0-5.53,2.48-5.53,5.53,0,1.02.28,1.97.76,2.79l.18.3c.15.23,9.15,11.61,9.15,11.61l9.33-11.9Z"/>
            <path class="cls-6" d="M267.18,89.92c.48-.82.76-1.78.76-2.8,0-3.05-2.48-5.53-5.53-5.53-1.89,0-3.56.95-4.55,2.39-1-1.45-2.67-2.39-4.56-2.39-3.06,0-5.53,2.48-5.53,5.53,0,1.02.28,1.98.76,2.8l.18.29c.15.23,9.15,11.61,9.15,11.61l9.33-11.9Z"/>
            <path class="cls-6" d="M267.18,149.71c.48-.82.76-1.78.76-2.8,0-3.06-2.48-5.53-5.53-5.53-1.89,0-3.56.95-4.55,2.39-1-1.45-2.67-2.39-4.56-2.39-3.06,0-5.53,2.48-5.53,5.53,0,1.02.28,1.97.76,2.8l.18.3c.15.23,9.15,11.61,9.15,11.61l9.33-11.9Z"/>
            <path class="cls-6" d="M267.18,209.51c.48-.82.76-1.78.76-2.79,0-3.06-2.48-5.53-5.53-5.53-1.89,0-3.56.95-4.55,2.39-1-1.45-2.67-2.39-4.56-2.39-3.06,0-5.53,2.48-5.53,5.53,0,1.02.28,1.97.76,2.79l.18.3c.15.22,9.15,11.61,9.15,11.61l9.33-11.9Z"/>
            <path class="cls-6" d="M267.18,269.3c.48-.82.76-1.78.76-2.8,0-3.05-2.48-5.53-5.53-5.53-1.89,0-3.56.95-4.55,2.39-1-1.45-2.67-2.39-4.56-2.39-3.06,0-5.53,2.48-5.53,5.53,0,1.02.28,1.98.76,2.8l.18.29c.15.23,9.15,11.61,9.15,11.61l9.33-11.9Z"/>
            <path class="cls-6" d="M267.18,329.1c.48-.82.76-1.78.76-2.79,0-3.06-2.48-5.54-5.53-5.54-1.89,0-3.56.95-4.55,2.39-1-1.45-2.67-2.39-4.56-2.39-3.06,0-5.53,2.48-5.53,5.54,0,1.02.28,1.97.76,2.79l.18.3c.15.23,9.15,11.61,9.15,11.61l9.33-11.9Z"/>
            <path class="cls-6" d="M267.18,388.89c.48-.82.76-1.78.76-2.79,0-3.05-2.48-5.53-5.53-5.53-1.89,0-3.56.95-4.55,2.39-1-1.45-2.67-2.39-4.56-2.39-3.06,0-5.53,2.48-5.53,5.53,0,1.02.28,1.97.76,2.79l.18.3c.15.23,9.15,11.61,9.15,11.61l9.33-11.91Z"/>
            <path class="cls-6" d="M230.29,119.82c.48-.82.76-1.78.76-2.8,0-3.05-2.48-5.53-5.53-5.53-1.89,0-3.56.95-4.56,2.39-1-1.45-2.67-2.39-4.56-2.39-3.06,0-5.53,2.48-5.53,5.53,0,1.02.28,1.97.76,2.8l.18.29c.15.22,9.15,11.61,9.15,11.61l9.33-11.9Z"/>
            <path class="cls-6" d="M230.29,179.61c.48-.82.76-1.78.76-2.79,0-3.06-2.48-5.53-5.53-5.53-1.89,0-3.56.95-4.56,2.39-1-1.45-2.67-2.39-4.56-2.39-3.06,0-5.53,2.48-5.53,5.53,0,1.02.28,1.97.76,2.79l.18.29c.15.23,9.15,11.61,9.15,11.61l9.33-11.9Z"/>
            <path class="cls-6" d="M230.29,239.4c.48-.82.76-1.78.76-2.79,0-3.06-2.48-5.53-5.53-5.53-1.89,0-3.56.95-4.56,2.39-1-1.45-2.67-2.39-4.56-2.39-3.06,0-5.53,2.48-5.53,5.53,0,1.02.28,1.97.76,2.79l.18.29c.15.23,9.15,11.61,9.15,11.61l9.33-11.9Z"/>
            <path class="cls-6" d="M230.29,299.2c.48-.82.76-1.78.76-2.8,0-3.05-2.48-5.53-5.53-5.53-1.89,0-3.56.95-4.56,2.39-1-1.45-2.67-2.39-4.56-2.39-3.06,0-5.53,2.48-5.53,5.53,0,1.02.28,1.97.76,2.8l.18.29c.15.23,9.15,11.61,9.15,11.61l9.33-11.9Z"/>
            <path class="cls-6" d="M230.29,358.99c.48-.82.76-1.78.76-2.79,0-3.06-2.48-5.53-5.53-5.53-1.89,0-3.56.95-4.56,2.39-1-1.45-2.67-2.39-4.56-2.39-3.06,0-5.53,2.48-5.53,5.53,0,1.02.28,1.97.76,2.79l.18.3c.15.23,9.15,11.61,9.15,11.61l9.33-11.9Z"/>
            <path class="cls-6" d="M191.48,89.92c.48-.82.76-1.78.76-2.8,0-3.05-2.48-5.53-5.53-5.53-1.89,0-3.56.95-4.56,2.39-1-1.45-2.67-2.39-4.56-2.39-3.06,0-5.53,2.48-5.53,5.53,0,1.02.28,1.98.76,2.8l.19.29c.15.23,9.15,11.61,9.15,11.61l9.33-11.9Z"/>
            <path class="cls-6" d="M191.48,149.71c.48-.82.76-1.78.76-2.8,0-3.06-2.48-5.53-5.53-5.53-1.89,0-3.56.95-4.56,2.39-1-1.45-2.67-2.39-4.56-2.39-3.06,0-5.53,2.48-5.53,5.53,0,1.02.28,1.97.76,2.8l.19.3c.15.23,9.15,11.61,9.15,11.61l9.33-11.9Z"/>
            <path class="cls-6" d="M191.48,209.51c.48-.82.76-1.78.76-2.79,0-3.06-2.48-5.53-5.53-5.53-1.89,0-3.56.95-4.56,2.39-1-1.45-2.67-2.39-4.56-2.39-3.06,0-5.53,2.48-5.53,5.53,0,1.02.28,1.97.76,2.79l.19.3c.15.22,9.15,11.61,9.15,11.61l9.33-11.9Z"/>
            <path class="cls-6" d="M191.48,269.3c.48-.82.76-1.78.76-2.8,0-3.05-2.48-5.53-5.53-5.53-1.89,0-3.56.95-4.56,2.39-1-1.45-2.67-2.39-4.56-2.39-3.06,0-5.53,2.48-5.53,5.53,0,1.02.28,1.98.76,2.8l.19.29c.15.23,9.15,11.61,9.15,11.61l9.33-11.9Z"/>
            <path class="cls-6" d="M191.48,329.1c.48-.82.76-1.78.76-2.79,0-3.06-2.48-5.54-5.53-5.54-1.89,0-3.56.95-4.56,2.39-1-1.45-2.67-2.39-4.56-2.39-3.06,0-5.53,2.48-5.53,5.54,0,1.02.28,1.97.76,2.79l.19.3c.15.23,9.15,11.61,9.15,11.61l9.33-11.9Z"/>
            <path class="cls-6" d="M191.48,388.89c.48-.82.76-1.78.76-2.79,0-3.05-2.48-5.53-5.53-5.53-1.89,0-3.56.95-4.56,2.39-1-1.45-2.67-2.39-4.56-2.39-3.06,0-5.53,2.48-5.53,5.53,0,1.02.28,1.97.76,2.79l.19.3c.15.23,9.15,11.61,9.15,11.61l9.33-11.91Z"/>
            <path class="cls-6" d="M154.6,119.82c.48-.82.76-1.78.76-2.8,0-3.05-2.48-5.53-5.53-5.53-1.89,0-3.56.95-4.56,2.39-1-1.45-2.67-2.39-4.56-2.39-3.06,0-5.53,2.48-5.53,5.53,0,1.02.28,1.97.76,2.8l.18.29c.15.22,9.15,11.61,9.15,11.61l9.33-11.9Z"/>
            <path class="cls-6" d="M154.6,179.61c.48-.82.76-1.78.76-2.79,0-3.06-2.48-5.53-5.53-5.53-1.89,0-3.56.95-4.56,2.39-1-1.45-2.67-2.39-4.56-2.39-3.06,0-5.53,2.48-5.53,5.53,0,1.02.28,1.97.76,2.79l.18.29c.15.23,9.15,11.61,9.15,11.61l9.33-11.9Z"/>
            <path class="cls-6" d="M154.6,239.4c.48-.82.76-1.78.76-2.79,0-3.06-2.48-5.53-5.53-5.53-1.89,0-3.56.95-4.56,2.39-1-1.45-2.67-2.39-4.56-2.39-3.06,0-5.53,2.48-5.53,5.53,0,1.02.28,1.97.76,2.79l.18.29c.15.23,9.15,11.61,9.15,11.61l9.33-11.9Z"/>
            <path class="cls-6" d="M154.6,299.2c.48-.82.76-1.78.76-2.8,0-3.05-2.48-5.53-5.53-5.53-1.89,0-3.56.95-4.56,2.39-1-1.45-2.67-2.39-4.56-2.39-3.06,0-5.53,2.48-5.53,5.53,0,1.02.28,1.97.76,2.8l.18.29c.15.23,9.15,11.61,9.15,11.61l9.33-11.9Z"/>
            <path class="cls-6" d="M154.6,358.99c.48-.82.76-1.78.76-2.79,0-3.06-2.48-5.53-5.53-5.53-1.89,0-3.56.95-4.56,2.39-1-1.45-2.67-2.39-4.56-2.39-3.06,0-5.53,2.48-5.53,5.53,0,1.02.28,1.97.76,2.79l.18.3c.15.23,9.15,11.61,9.15,11.61l9.33-11.9Z"/>
            <path class="cls-6" d="M115.79,89.92c.48-.82.76-1.78.76-2.8,0-3.05-2.48-5.53-5.53-5.53-1.89,0-3.56.95-4.56,2.39-1-1.45-2.67-2.39-4.56-2.39-3.05,0-5.53,2.48-5.53,5.53,0,1.02.28,1.98.76,2.8l.18.29c.15.23,9.15,11.61,9.15,11.61l9.33-11.9Z"/>
            <path class="cls-6" d="M115.79,149.71c.48-.82.76-1.78.76-2.8,0-3.06-2.48-5.53-5.53-5.53-1.89,0-3.56.95-4.56,2.39-1-1.45-2.67-2.39-4.56-2.39-3.05,0-5.53,2.48-5.53,5.53,0,1.02.28,1.97.76,2.8l.18.3c.15.23,9.15,11.61,9.15,11.61l9.33-11.9Z"/>
            <path class="cls-6" d="M115.79,209.51c.48-.82.76-1.78.76-2.79,0-3.06-2.48-5.53-5.53-5.53-1.89,0-3.56.95-4.56,2.39-1-1.45-2.67-2.39-4.56-2.39-3.05,0-5.53,2.48-5.53,5.53,0,1.02.28,1.97.76,2.79l.18.3c.15.22,9.15,11.61,9.15,11.61l9.33-11.9Z"/>
            <path class="cls-6" d="M115.79,269.3c.48-.82.76-1.78.76-2.8,0-3.05-2.48-5.53-5.53-5.53-1.89,0-3.56.95-4.56,2.39-1-1.45-2.67-2.39-4.56-2.39-3.05,0-5.53,2.48-5.53,5.53,0,1.02.28,1.98.76,2.8l.18.29c.15.23,9.15,11.61,9.15,11.61l9.33-11.9Z"/>
            <path class="cls-6" d="M115.79,329.1c.48-.82.76-1.78.76-2.79,0-3.06-2.48-5.54-5.53-5.54-1.89,0-3.56.95-4.56,2.39-1-1.45-2.67-2.39-4.56-2.39-3.05,0-5.53,2.48-5.53,5.54,0,1.02.28,1.97.76,2.79l.18.3c.15.23,9.15,11.61,9.15,11.61l9.33-11.9Z"/>
            <path class="cls-6" d="M115.79,388.89c.48-.82.76-1.78.76-2.79,0-3.05-2.48-5.53-5.53-5.53-1.89,0-3.56.95-4.56,2.39-1-1.45-2.67-2.39-4.56-2.39-3.05,0-5.53,2.48-5.53,5.53,0,1.02.28,1.97.76,2.79l.18.3c.15.23,9.15,11.61,9.15,11.61l9.33-11.91Z"/>
            <path class="cls-6" d="M78.91,119.82c.48-.82.76-1.78.76-2.8,0-3.05-2.48-5.53-5.53-5.53-1.89,0-3.56.95-4.56,2.39-1-1.45-2.67-2.39-4.56-2.39-3.05,0-5.53,2.48-5.53,5.53,0,1.02.28,1.97.76,2.8l.18.29c.15.22,9.15,11.61,9.15,11.61l9.33-11.9Z"/>
            <path class="cls-6" d="M78.91,179.61c.48-.82.76-1.78.76-2.79,0-3.06-2.48-5.53-5.53-5.53-1.89,0-3.56.95-4.56,2.39-1-1.45-2.67-2.39-4.56-2.39-3.05,0-5.53,2.48-5.53,5.53,0,1.02.28,1.97.76,2.79l.18.29c.15.23,9.15,11.61,9.15,11.61l9.33-11.9Z"/>
            <path class="cls-6" d="M78.91,239.4c.48-.82.76-1.78.76-2.79,0-3.06-2.48-5.53-5.53-5.53-1.89,0-3.56.95-4.56,2.39-1-1.45-2.67-2.39-4.56-2.39-3.05,0-5.53,2.48-5.53,5.53,0,1.02.28,1.97.76,2.79l.18.29c.15.23,9.15,11.61,9.15,11.61l9.33-11.9Z"/>
            <path class="cls-6" d="M78.91,299.2c.48-.82.76-1.78.76-2.8,0-3.05-2.48-5.53-5.53-5.53-1.89,0-3.56.95-4.56,2.39-1-1.45-2.67-2.39-4.56-2.39-3.05,0-5.53,2.48-5.53,5.53,0,1.02.28,1.97.76,2.8l.18.29c.15.23,9.15,11.61,9.15,11.61l9.33-11.9Z"/>
            <path class="cls-6" d="M78.91,358.99c.48-.82.76-1.78.76-2.79,0-3.06-2.48-5.53-5.53-5.53-1.89,0-3.56.95-4.56,2.39-1-1.45-2.67-2.39-4.56-2.39-3.05,0-5.53,2.48-5.53,5.53,0,1.02.28,1.97.76,2.79l.18.3c.15.23,9.15,11.61,9.15,11.61l9.33-11.9Z"/>
            <path class="cls-6" d="M40.1,89.92c.48-.82.76-1.78.76-2.8,0-3.05-2.48-5.53-5.53-5.53-1.89,0-3.56.95-4.56,2.39-1-1.45-2.67-2.39-4.56-2.39-3.05,0-5.53,2.48-5.53,5.53,0,1.02.28,1.98.76,2.8l.18.29c.15.23,9.15,11.61,9.15,11.61l9.33-11.9Z"/>
            <path class="cls-6" d="M40.1,149.71c.48-.82.76-1.78.76-2.8,0-3.06-2.48-5.53-5.53-5.53-1.89,0-3.56.95-4.56,2.39-1-1.45-2.67-2.39-4.56-2.39-3.05,0-5.53,2.48-5.53,5.53,0,1.02.28,1.97.76,2.8l.18.3c.15.23,9.15,11.61,9.15,11.61l9.33-11.9Z"/>
            <path class="cls-6" d="M40.1,209.51c.48-.82.76-1.78.76-2.79,0-3.06-2.48-5.53-5.53-5.53-1.89,0-3.56.95-4.56,2.39-1-1.45-2.67-2.39-4.56-2.39-3.05,0-5.53,2.48-5.53,5.53,0,1.02.28,1.97.76,2.79l.18.3c.15.22,9.15,11.61,9.15,11.61l9.33-11.9Z"/>
            <path class="cls-6" d="M40.1,269.3c.48-.82.76-1.78.76-2.8,0-3.05-2.48-5.53-5.53-5.53-1.89,0-3.56.95-4.56,2.39-1-1.45-2.67-2.39-4.56-2.39-3.05,0-5.53,2.48-5.53,5.53,0,1.02.28,1.98.76,2.8l.18.29c.15.23,9.15,11.61,9.15,11.61l9.33-11.9Z"/>
            <path class="cls-6" d="M40.1,329.1c.48-.82.76-1.78.76-2.79,0-3.06-2.48-5.54-5.53-5.54-1.89,0-3.56.95-4.56,2.39-1-1.45-2.67-2.39-4.56-2.39-3.05,0-5.53,2.48-5.53,5.54,0,1.02.28,1.97.76,2.79l.18.3c.15.23,9.15,11.61,9.15,11.61l9.33-11.9Z"/>
            <path class="cls-6" d="M40.1,388.89c.48-.82.76-1.78.76-2.79,0-3.05-2.48-5.53-5.53-5.53-1.89,0-3.56.95-4.56,2.39-1-1.45-2.67-2.39-4.56-2.39-3.05,0-5.53,2.48-5.53,5.53,0,1.02.28,1.97.76,2.79l.18.3c.15.23,9.15,11.61,9.15,11.61l9.33-11.91Z"/>
            <path class="cls-6" d="M3.22,119.82c.48-.82.76-1.78.76-2.8,0-3.05-2.48-5.53-5.53-5.53-1.89,0-3.56.95-4.56,2.39-1-1.45-2.67-2.39-4.56-2.39-3.06,0-5.53,2.48-5.53,5.53,0,1.02.28,1.97.76,2.8l.18.29c.15.22,9.15,11.61,9.15,11.61l9.33-11.9Z"/>
            <path class="cls-6" d="M3.22,179.61c.48-.82.76-1.78.76-2.79,0-3.06-2.48-5.53-5.53-5.53-1.89,0-3.56.95-4.56,2.39-1-1.45-2.67-2.39-4.56-2.39-3.06,0-5.53,2.48-5.53,5.53,0,1.02.28,1.97.76,2.79l.18.29c.15.23,9.15,11.61,9.15,11.61l9.33-11.9Z"/>
            <path class="cls-6" d="M3.22,239.4c.48-.82.76-1.78.76-2.79,0-3.06-2.48-5.53-5.53-5.53-1.89,0-3.56.95-4.56,2.39-1-1.45-2.67-2.39-4.56-2.39-3.06,0-5.53,2.48-5.53,5.53,0,1.02.28,1.97.76,2.79l.18.29c.15.23,9.15,11.61,9.15,11.61l9.33-11.9Z"/>
            <path class="cls-6" d="M3.22,299.2c.48-.82.76-1.78.76-2.8,0-3.05-2.48-5.53-5.53-5.53-1.89,0-3.56.95-4.56,2.39-1-1.45-2.67-2.39-4.56-2.39-3.06,0-5.53,2.48-5.53,5.53,0,1.02.28,1.97.76,2.8l.18.29c.15.23,9.15,11.61,9.15,11.61l9.33-11.9Z"/>
            <path class="cls-6" d="M3.22,358.99c.48-.82.76-1.78.76-2.79,0-3.06-2.48-5.53-5.53-5.53-1.89,0-3.56.95-4.56,2.39-1-1.45-2.67-2.39-4.56-2.39-3.06,0-5.53,2.48-5.53,5.53,0,1.02.28,1.97.76,2.79l.18.3c.15.23,9.15,11.61,9.15,11.61l9.33-11.9Z"/>
          </g>
        </g>
        <rect class="cls-1" x="13.83" y="207.49" width="301.59" height="8.52"/>
      </g>
    </g>
  </g>
</svg>